PathFileType	4	(X/Y/Z)	C:\Users\Basilio\Documents\Thesis Gigler\squatting_fais\c3dfiles\044\SJ_pre4\markers_experimental.trc
DataRate	CameraRate	NumFrames	NumMarkers	Units	OrigDataRate	OrigDataStartFrame	OrigNumFrames
200.000000	200.000000	4	63	mm	200.000000	712	1425
Frame#	Time	FHD			LBHD			RBHD			C7			T10			CLAV			LSHO			LUUPA			LMUPA			LDUPA			LLEP			LMEP			LRAD			LUL			LRFIN			RSHO			RUPA1			RMUPA			RDUPA			RLEP			RMEP			RRAD			RUL			RUFIN			LASI			RASI			USACR			LSACR			LTHI1			LTHI2			LTHI3			LTHI4			LLFC			LMFC			LTIB1			LTIB2			LTIB3			LTIB4			LLMAL			LMMAL			LHEE			LMT1			LMT2			LMT5			RTHI			RTHI2			RTHI3			RTHI4			RLFC			RMFC			RTIB1			RTIB2			RTIB3			RTIB4			RLMAL			RMMAL			RHEE			RMT1			RMT2			RMT5			RSACR			*61			*62			
		X1	Y1	Z1	X2	Y2	Z2	X3	Y3	Z3	X4	Y4	Z4	X5	Y5	Z5	X6	Y6	Z6	X7	Y7	Z7	X8	Y8	Z8	X9	Y9	Z9	X10	Y10	Z10	X11	Y11	Z11	X12	Y12	Z12	X13	Y13	Z13	X14	Y14	Z14	X15	Y15	Z15	X16	Y16	Z16	X17	Y17	Z17	X18	Y18	Z18	X19	Y19	Z19	X20	Y20	Z20	X21	Y21	Z21	X22	Y22	Z22	X23	Y23	Z23	X24	Y24	Z24	X25	Y25	Z25	X26	Y26	Z26	X27	Y27	Z27	X28	Y28	Z28	X29	Y29	Z29	X30	Y30	Z30	X31	Y31	Z31	X32	Y32	Z32	X33	Y33	Z33	X34	Y34	Z34	X35	Y35	Z35	X36	Y36	Z36	X37	Y37	Z37	X38	Y38	Z38	X39	Y39	Z39	X40	Y40	Z40	X41	Y41	Z41	X42	Y42	Z42	X43	Y43	Z43	X44	Y44	Z44	X45	Y45	Z45	X46	Y46	Z46	X47	Y47	Z47	X48	Y48	Z48	X49	Y49	Z49	X50	Y50	Z50	X51	Y51	Z51	X52	Y52	Z52	X53	Y53	Z53	X54	Y54	Z54	X55	Y55	Z55	X56	Y56	Z56	X57	Y57	Z57	X58	Y58	Z58	X59	Y59	Z59	X60	Y60	Z60	X61	Y61	Z61	X62	Y62	Z62	X63	Y63	Z63	

713	3.56	150.5066223144532	1090.046264648438	-940.552185058594	11.94164848327637	1077.15576171875	-1016.2080078125	-32.10640716552735	1077.361938476563	-855.667907714844	-110.9844665527344	992.5289306640627	-928.097351074219	-363.2742004394532	830.5545654296877	-901.0552368164065	-39.8860092163086	854.2178344726565	-932.3590087890627	-57.79414749145509	913.2176513671877	-1106.313720703125	-242.165512084961	871.3462524414065	-1247.116577148438	-260.0927429199219	827.3295898437502	-1234.987548828125	-302.4355163574219	847.662292480469	-1273.218872070313	-353.7067565917969	818.1771240234377	-1282.602661132813	-390.3775939941407	878.2861328125002	-1234.449829101563	-529.8270263671876	664.6186523437501	-1119.891479492188	-506.978485107422	621.5932617187501	-1169.494873046875	-478.8266601562501	645.9883422851564	-1081.046142578125	-34.1590919494629	913.6192016601565	-747.9842529296876	-185.5759735107422	861.7967529296877	-583.2786254882814	-202.6041564941407	815.4305419921877	-591.8416137695314	-238.0018310546876	831.5562133789065	-547.3121337890626	-285.4789428710938	795.1614990234377	-530.7338256835939	-341.2056274414063	855.461608886719	-563.6139526367189	-487.9337158203126	640.9291381835939	-656.8971557617189	-448.7008666992189	597.2048950195314	-611.7528076171876	-435.2357482910157	630.8516235351564	-707.5388183593751	-403.580291748047	600.5258178710939	-1025.262451171875	-388.9540100097657	580.0831298828126	-784.456726074219	-493.7866210937501	714.9431152343751	-889.601989746094	-524.8873291015626	696.4235839843751	-912.4465942382815	-413.9203491210939	513.3237304687501	-1127.3095703125	-330.4996337890626	517.5373535156251	-1151.52587890625	-308.8359069824219	558.6640625000001	-1138.243774414063	-293.0849609375001	471.8199768066407	-1162.08203125	-156.5753479003907	419.2152709960939	-1178.516967773438	-132.8733673095703	398.0375976562501	-1067.575927734375	-197.5743865966797	259.7947692871094	-1093.999389648438	-253.351058959961	234.3281250000001	-1160.766357421875	-225.5018157958985	217.429916381836	-1125.409790039063	-281.7341613769532	167.0119934082032	-1087.416015625	-391.5592651367189	93.18223571777345	-1125.666015625	-365.4451293945313	98.85343170166018	-1041.140380859375	-456.4519348144532	51.04551315307619	-1076.030151367188	-239.8511962890626	60.99078750610353	-1075.799194335938	-243.5720977783204	65.48989868164064	-1122.105224609375	-283.0234680175782	41.3861198425293	-1166.017700195313	-331.7191772460938	472.2223205566407	-694.8502197265626	-265.6564941406251	492.1241455078126	-692.3118896484376	-254.5206756591797	521.1151123046876	-701.0487060546876	-200.8886718750001	437.711883544922	-701.2252807617189	-128.0498046875	394.7352905273439	-710.7176513671876	-128.7962341308594	389.7266845703126	-832.0496826171877	-143.986312866211	270.2160034179688	-746.5966796875001	-243.4861602783204	256.3014221191407	-696.4093627929689	-215.2519531250001	226.9649963378907	-717.2227783203126	-242.7120666503907	184.0698852539063	-745.3610839843751	-388.1086730957032	96.27189636230472	-722.1997070312501	-365.7954406738282	96.88760375976565	-809.6020507812502	-452.8960571289064	50.89112854003908	-769.929382324219	-242.5392456054688	59.14089965820314	-776.0463867187502	-235.2662506103516	59.89342498779298	-737.2578735351564	-274.1910705566407	41.82195281982423	-685.3930664062501	-517.1483764648439	696.6580810546876	-858.3991699218752	nan	nan	nan	nan	nan	nan	
714	3.565	150.3258056640625	1089.537475585938	-940.8809204101565	12.06763553619385	1076.7236328125	-1016.609313964844	-32.06554412841798	1077.062133789063	-855.8446044921877	-110.7674636840821	992.2015380859377	-928.1972656250002	-363.3364562988282	830.5549926757815	-901.0808715820315	-39.77827835083009	853.8635864257815	-932.5040283203127	-57.61922073364259	912.5278930664065	-1106.512451171875	-242.2400360107422	870.936218261719	-1247.156494140625	-260.2074279785157	826.9275512695315	-1235.1494140625	-302.6262817382813	847.2356567382815	-1272.873657226563	-354.3283081054688	818.3901977539065	-1282.148803710938	-390.355194091797	878.1682739257815	-1234.4921875	-530.0974121093751	664.7357177734376	-1119.832885742188	-507.2480773925782	621.6299438476564	-1169.435791015625	-479.1048889160157	645.9849853515626	-1081.012329101563	-34.14935684204102	913.3001098632815	-748.1746826171876	-185.6190490722657	861.528747558594	-583.3010253906251	-202.6355895996094	815.354919433594	-591.8869628906251	-238.1337432861329	831.5059814453127	-547.4066772460939	-285.6554870605469	795.2702636718752	-530.9401855468751	-341.1744689941407	855.3251953125002	-563.6644897460939	-488.2216796875001	640.9407958984376	-656.8825073242189	-448.9388427734376	597.2846679687501	-611.6869506835939	-435.3594055175782	630.9277343750001	-707.5887451171876	-403.9069824218751	600.6575317382814	-1025.317749023438	-389.121551513672	580.5843505859376	-783.9863891601565	-493.965057373047	715.0933837890626	-889.6265258789065	-525.0317382812501	696.4689331054689	-912.391784667969	-414.0665283203126	513.3604736328126	-1127.263793945313	-330.7149353027344	517.5546875000001	-1151.5693359375	-309.1453552246094	558.7314453125001	-1138.16455078125	-293.2408447265626	471.8717346191407	-1162.092163085938	-156.703353881836	419.2805480957032	-1178.473022460938	-133.0037231445313	398.073699951172	-1067.5546875	-197.6952056884766	260.0872192382813	-1094.0634765625	-253.4631500244141	234.3764038085938	-1160.7734375	-225.4362945556641	217.4302520751954	-1125.216552734375	-281.7410583496094	166.998275756836	-1087.389038085938	-391.5621337890626	93.17360687255861	-1125.61865234375	-365.4540100097657	98.83391571044925	-1041.132934570313	-456.4400329589845	50.98551177978517	-1076.0322265625	-239.8699340820313	60.96994400024415	-1075.786743164063	-243.5609741210938	65.50244903564455	-1122.119506835938	-282.8864746093751	41.04425048828126	-1165.65283203125	-331.8415527343751	472.2578430175782	-694.9477539062501	-265.7501831054688	492.1150512695314	-692.4029541015626	-254.6886138916016	521.3330078125001	-701.1196289062501	-200.944076538086	437.7540588378907	-701.3074340820314	-128.1065826416016	394.7359924316407	-710.7961425781251	-128.9209594726563	389.8739318847657	-832.0959472656252	-144.0088653564453	270.2113037109376	-746.6696166992189	-243.5093994140626	256.3853149414063	-696.5499267578126	-215.3081970214844	226.9865875244141	-717.2489624023439	-242.7484588623047	184.1183471679688	-745.4739379882814	-388.079315185547	96.28810119628909	-722.1957397460939	-365.8576965332032	96.87664794921878	-809.688903808594	-452.9080810546876	50.90312576293947	-769.9595947265627	-242.5088958740235	59.08631515502931	-776.0909423828127	-235.2553710937501	59.88917922973634	-737.2552490234376	-274.1115417480469	41.95445632934571	-685.4562988281251	-517.3756713867189	696.8341064453126	-858.3763427734377	nan	nan	nan	nan	nan	nan	
715	3.57	150.4066009521485	1089.1474609375	-941.385437011719	11.85504341125488	1076.362548828125	-1016.849670410156	-31.58813285827637	1076.31591796875	-856.1858520507815	-110.6890029907227	992.0005493164065	-928.257507324219	-363.4044189453126	830.6585693359377	-901.1421508789065	-39.57560729980469	853.2041015625002	-932.719909667969	-57.55617141723634	911.986999511719	-1106.661376953125	-242.2944793701172	870.5715332031252	-1247.235961914063	-260.1524047851563	826.6126708984377	-1235.2353515625	-302.7226867675782	846.9519042968752	-1272.919311523438	-354.5449523925782	818.1937255859377	-1282.1796875	-390.3587646484376	877.9764404296877	-1234.501586914063	-530.4486694335939	664.8756103515626	-1119.793212890625	-507.8698730468751	621.2782592773439	-1169.842529296875	-479.4348144531251	646.0538330078126	-1080.905883789063	-33.94141006469727	912.8489990234377	-748.3166503906251	-185.6315307617188	861.352722167969	-583.2987670898439	-202.667953491211	815.2832641601565	-591.9729003906251	-238.1918945312501	831.517761230469	-547.5406494140626	-285.8429260253907	795.1638793945315	-530.9196166992189	-341.2362976074219	855.2622680664065	-563.7886352539064	-488.5526733398439	641.0625610351564	-656.8881225585939	-449.1070861816407	597.4173583984376	-611.6498413085939	-435.4607238769532	630.9664916992189	-707.5805664062501	-404.1546325683595	600.7993774414064	-1025.29052734375	-389.1204528808595	580.6647949218751	-784.2547607421877	-494.2427673339845	715.1739501953126	-889.6306762695315	-525.3145141601564	696.5773925781251	-912.318298339844	-414.3524780273439	513.4238281250001	-1127.16259765625	-330.9437561035157	517.5431518554689	-1151.49365234375	-309.3546752929688	558.8769531250001	-1138.1064453125	-293.4758605957032	471.9099426269532	-1162.023803710938	-156.8934020996094	419.4232788085939	-1178.451171875	-133.1216278076172	398.1860656738282	-1067.53759765625	-197.7403717041016	260.1148071289063	-1094.104858398438	-253.4890289306641	234.4834442138672	-1160.792724609375	-225.4890136718751	217.5163116455079	-1125.273681640625	-281.7380981445313	166.9931030273438	-1087.39501953125	-391.5340881347657	93.17092895507814	-1125.636596679688	-365.4369201660157	98.83511352539065	-1041.133422851563	-456.4564819335939	51.03157424926759	-1076.032470703125	-239.8579711914063	60.99446868896486	-1075.72412109375	-243.5334014892579	65.54646301269533	-1122.118896484375	-282.9393310546876	41.36973190307618	-1166.003173828125	-331.9382934570313	472.2102661132814	-694.9081420898439	-265.8475341796876	492.1232299804689	-692.5392456054689	-254.8482208251954	521.4014892578126	-701.0988769531251	-201.0674591064454	437.820281982422	-701.4734497070314	-128.1938171386719	394.8175354003907	-710.9527587890626	-129.0087280273438	390.0235900878907	-832.1695556640627	-144.1728668212891	270.3648681640626	-746.7081298828126	-243.5558471679688	256.3665161132813	-696.5374145507814	-215.3502807617188	227.1520080566407	-717.3203125000001	-242.7551879882813	184.1462097167969	-745.4669189453126	-388.1271057128907	96.33457946777347	-722.3312988281251	-365.8801574707032	96.88220977783206	-809.6647949218752	-452.7216796875001	50.79999923706056	-769.9765625000002	-242.418685913086	59.08482742309572	-776.0460205078127	-235.2523345947266	59.90876770019533	-737.2504272460939	-274.0841674804688	41.95849990844727	-685.4068603515626	-517.5272827148439	696.9447021484376	-858.387390136719	nan	nan	nan	nan	nan	nan	
716	3.575	150.5570373535157	1088.645751953125	-942.0147705078127	11.49979591369629	1075.710815429688	-1017.036376953125	-31.664213180542	1075.660522460938	-856.2817993164065	-109.7699356079102	990.8027954101565	-928.6448364257815	-363.4047546386719	830.6245117187502	-901.146423339844	-39.39628982543946	852.6860961914065	-932.740905761719	-57.39718246459962	911.377136230469	-1106.879028320313	-242.3365631103516	870.149353027344	-1247.373779296875	-260.2609558105469	826.241149902344	-1235.298706054688	-302.7191467285157	846.7517089843752	-1273.025146484375	-354.5406188964844	818.0957031250002	-1282.302978515625	-390.400360107422	877.9925537109377	-1234.58837890625	-530.7796630859376	664.9689331054689	-1119.795288085938	-508.1936035156251	621.4384765625001	-1169.789794921875	-479.7973937988282	646.2023925781251	-1080.881103515625	-33.66960525512696	912.549743652344	-748.4323120117189	-185.6266479492188	861.1243896484377	-583.3504638671876	-202.6007690429688	814.9690551757815	-592.0603637695314	-238.2293395996094	831.419616699219	-547.5443725585939	-285.8935852050782	795.046081542969	-530.9282836914064	-341.2933044433594	855.2803955078127	-563.8982543945314	-488.7362060546876	641.0946655273439	-656.8528442382814	-449.1514892578126	597.3529052734376	-611.6542358398439	-435.7742919921876	631.0317993164064	-707.6364746093751	-404.7060546875001	600.8146972656251	-1025.09033203125	-389.0118103027345	580.7346191406251	-784.6343383789065	-494.467498779297	715.3092651367189	-889.6320800781252	-525.6172485351564	696.6903686523439	-912.190612792969	-414.5437316894532	513.4509887695314	-1127.158325195313	-331.1910705566407	517.6438598632814	-1151.444091796875	-309.6712341308594	559.0552978515626	-1138.047729492188	-293.5899047851563	472.0611877441407	-1162.03125	-156.9574737548828	419.5381164550782	-1178.4609375	-133.2257232666016	398.3056640625001	-1067.544555664063	-197.9204711914063	260.7382202148438	-1094.42578125	-253.665023803711	234.607162475586	-1160.789428710938	-225.4279479980469	217.3575286865235	-1125.12451171875	-281.8226623535157	166.9385528564453	-1087.344604492188	-391.5255432128907	93.15185546875001	-1125.677124023438	-365.4873046875001	98.84061431884768	-1041.145263671875	-456.4717407226564	50.92717742919923	-1076.036865234375	-239.8627166748047	60.96902465820314	-1075.741333007813	-243.5920867919922	65.51472473144533	-1122.1123046875	-282.9296875000001	41.03919982910157	-1165.667236328125	-331.9974670410157	472.2213134765626	-694.9552612304689	-266.0948181152344	492.2209777832032	-692.5969848632814	-255.0259399414063	521.4732666015626	-701.1280517578126	-201.1356048583985	437.8568115234376	-701.5800781250001	-128.2600402832032	394.862762451172	-710.9916992187501	-129.1882476806641	390.1457519531251	-832.2457275390627	-144.2420654296875	270.4564208984376	-746.8494262695314	-243.6382293701172	256.5640563964844	-696.6405639648439	-215.3562164306641	227.2050933837891	-717.3576660156251	-242.8539428710938	184.377670288086	-745.5939941406251	-388.135223388672	96.30506896972659	-722.3337402343751	-365.8299560546876	96.8829040527344	-809.681823730469	-452.891326904297	50.88595962524415	-769.9979248046877	-242.4741668701172	59.08126068115236	-776.1057739257815	-235.2467193603516	59.91005706787111	-737.2811889648439	-274.0686950683594	42.00789260864259	-685.4669189453126	-517.6980590820314	697.0104370117189	-858.3562622070315	nan	nan	nan	nan	nan	nan	
